<svg xmlns="http://www.w3.org/2000/svg" width="108.111" height="46" viewBox="0 0 108.111 46"><g transform="translate(-71 -60)"><g transform="translate(71 60)"><g transform="translate(0.347)"><g transform="translate(0 4.246)"><path d="M1.19,52.344V16.64H13.84q19.023,0,19.021,17.4,0,8.341-5.19,13.32T13.84,52.344ZM9.229,23.186V45.82h3.983a10.765,10.765,0,0,0,8.2-3.138q2.974-3.136,2.974-8.541a10.8,10.8,0,0,0-2.951-8.031q-2.952-2.926-8.279-2.925H9.227Z" transform="translate(-1.19 -16.033)" fill="#f05239"/><path d="M148.607,16.64l-8.885,26.008L130.834,16.64H118.98v35.7h7.246V24.72l9.454,27.623h8.08l9.457-27.623V52.344h7.246V16.64Z" transform="translate(-84.632 -16.033)" fill="#f05239"/><path d="M270.576,49.488V41.521a15.277,15.277,0,0,0,4.706,2.726,15.105,15.105,0,0,0,5.129.91,11.308,11.308,0,0,0,2.651-.274,6.252,6.252,0,0,0,1.893-.758,3.32,3.32,0,0,0,1.134-1.146,2.866,2.866,0,0,0,.373-1.432,3.086,3.086,0,0,0-.6-1.866,6.481,6.481,0,0,0-1.63-1.519,17.024,17.024,0,0,0-2.452-1.344c-.945-.432-1.968-.872-3.062-1.321a15.63,15.63,0,0,1-6.237-4.257,9.3,9.3,0,0,1-2.053-6.074,9.679,9.679,0,0,1,1.12-4.794,9.519,9.519,0,0,1,3.05-3.3,13.7,13.7,0,0,1,4.47-1.9,23.052,23.052,0,0,1,5.377-.609,32.406,32.406,0,0,1,4.943.335,19.584,19.584,0,0,1,3.972,1.032v7.445a12.26,12.26,0,0,0-1.954-1.1,15.515,15.515,0,0,0-2.178-.784A16.622,16.622,0,0,0,287,21.031a15.842,15.842,0,0,0-2.105-.149,10.934,10.934,0,0,0-2.49.262,6.442,6.442,0,0,0-1.892.735,3.641,3.641,0,0,0-1.2,1.134,2.679,2.679,0,0,0-.423,1.481,2.833,2.833,0,0,0,.472,1.607,5.431,5.431,0,0,0,1.344,1.344,14.111,14.111,0,0,0,2.117,1.245q1.247.608,2.814,1.257a31.732,31.732,0,0,1,3.846,1.9,13.74,13.74,0,0,1,2.925,2.277,8.857,8.857,0,0,1,1.866,2.9,10.252,10.252,0,0,1,.647,3.8,10.159,10.159,0,0,1-1.134,5.016,9.205,9.205,0,0,1-3.073,3.286,13.356,13.356,0,0,1-4.52,1.805,26.161,26.161,0,0,1-5.441.548,30.6,30.6,0,0,1-5.59-.5,16.959,16.959,0,0,1-4.593-1.493Z" transform="translate(-191.92 -14.56)" fill="#f05239"/></g><path d="M358.323,0A2.1,2.1,0,1,1,356.2,2.114,2.1,2.1,0,0,1,358.323,0Zm0,3.9A1.775,1.775,0,0,0,360.1,2.091a1.782,1.782,0,1,0-3.563.023A1.752,1.752,0,0,0,358.323,3.9Zm-.787-3h.9c.583,0,.86.216.86.7a.63.63,0,0,1-.644.662l.7,1.076h-.367l-.668-1.047h-.435V3.336h-.338V.9Zm.338,1.085h.42c.338,0,.656-.017.656-.4,0-.338-.289-.379-.548-.379h-.525v.781Z" transform="translate(-252.679)" fill="#f05239"/></g><g transform="translate(0 42.285)"><path d="M0,145.32H1.394a1.686,1.686,0,0,1,1.8,1.767,1.788,1.788,0,0,1-1.872,1.767H0Zm1.1,2.966c.79,0,1.435-.338,1.435-1.2s-.56-1.2-1.327-1.2H.633v2.4H1.1Z" transform="translate(0 -145.23)" fill="#f05239"/><path d="M15.7,145.32h.63v3.534H15.7V145.32Z" transform="translate(-11.122 -145.23)" fill="#f05239"/><path d="M25.94,148.375a3.051,3.051,0,0,1-1.464.35,1.771,1.771,0,0,1-1.866-1.843,1.794,1.794,0,0,1,1.866-1.872,2.019,2.019,0,0,1,1.394.443l-.464.469a1.339,1.339,0,0,0-.924-.344,1.2,1.2,0,0,0-1.213,1.263,1.212,1.212,0,0,0,1.213,1.312,1.713,1.713,0,0,0,.828-.184v-.834h-.723v-.569H25.94Z" transform="translate(-16.017 -145.01)" fill="#f05239"/><path d="M39.3,145.32h.63v3.534H39.3Z" transform="translate(-27.84 -145.23)" fill="#f05239"/><path d="M46.7,145.889H45.62v-.569h2.8v.569H47.332v2.966H46.7v-2.966Z" transform="translate(-32.317 -145.23)" fill="#f05239"/><path d="M58.04,145.32h.545l1.522,3.534h-.72l-.33-.811H57.524l-.321.811h-.7l1.537-3.534Zm.8,2.187-.545-1.438-.554,1.438Z" transform="translate(-40.025 -145.23)" fill="#f05239"/><path d="M72.99,145.32h.63v2.966h1.5v.569H72.99Z" transform="translate(-51.706 -145.23)" fill="#f05239"/><path d="M92.5,145.32h.959L94.4,147.8l.954-2.476h.951v3.534h-.6v-2.936H95.7l-1.073,2.936h-.44l-1.073-2.936H93.1v2.936h-.6V145.32Z" transform="translate(-65.527 -145.23)" fill="#f05239"/><path d="M111.25,145.32h.545l1.522,3.534h-.72l-.329-.811h-1.534l-.321.811h-.7l1.537-3.534Zm.8,2.187-.545-1.438-.554,1.438Z" transform="translate(-77.719 -145.23)" fill="#f05239"/><path d="M126.183,145.32h1.228c.679,0,1.318.219,1.318,1.015a.907.907,0,0,1-.819.959l.939,1.563h-.758l-.819-1.5h-.461v1.5h-.63v-3.534Zm1.12,1.5c.356,0,.77-.029.77-.49,0-.42-.391-.469-.714-.469h-.545v.959Z" transform="translate(-89.386 -145.23)" fill="#f05239"/><path d="M139.73,145.32h.63v1.5h.029l1.464-1.5h.849l-1.653,1.633,1.764,1.9h-.884l-1.534-1.738h-.035v1.738h-.63V145.32Z" transform="translate(-98.985 -145.23)" fill="#f05239"/><path d="M154.22,145.32h2.342v.569H154.85v.869h1.624v.569H154.85v.959h1.8v.569H154.22Z" transform="translate(-109.249 -145.23)" fill="#f05239"/><path d="M167.285,145.889H166.2v-.569H169v.569h-1.085v2.966h-.63v-2.966Z" transform="translate(-117.736 -145.23)" fill="#f05239"/><path d="M179.97,145.32h.63v3.534h-.63Z" transform="translate(-127.491 -145.23)" fill="#f05239"/><path d="M187.53,145.32h.834l1.712,2.627h.012V145.32h.63v3.534h-.8l-1.747-2.712h-.012v2.712h-.63Z" transform="translate(-132.846 -145.23)" fill="#f05239"/><path d="M206.6,148.375a3.051,3.051,0,0,1-1.464.35,1.771,1.771,0,0,1-1.866-1.843,1.794,1.794,0,0,1,1.866-1.872,2.019,2.019,0,0,1,1.394.443l-.464.469a1.339,1.339,0,0,0-.924-.344,1.2,1.2,0,0,0-1.213,1.263,1.212,1.212,0,0,0,1.213,1.312,1.713,1.713,0,0,0,.828-.184v-.834h-.723v-.569H206.6Z" transform="translate(-143.996 -145.01)" fill="#f05239"/><path d="M228.974,145.866a.743.743,0,0,0-.618-.28c-.289,0-.58.128-.58.455,0,.709,1.677.3,1.677,1.563a1.148,1.148,0,0,1-1.295,1.129,1.462,1.462,0,0,1-1.158-.478l.472-.461a.832.832,0,0,0,.7.37c.28,0,.618-.16.618-.484,0-.776-1.677-.33-1.677-1.592,0-.729.65-1.067,1.3-1.067a1.452,1.452,0,0,1,1.015.364l-.461.484Z" transform="translate(-160.807 -145.017)" fill="#f05239"/><path d="M240.255,145.889H239.17v-.569h2.8v.569h-1.085v2.966h-.63v-2.966Z" transform="translate(-169.428 -145.23)" fill="#f05239"/><path d="M252.983,145.32h1.228c.679,0,1.318.219,1.318,1.015a.907.907,0,0,1-.819.959l.939,1.563h-.758l-.819-1.5h-.461v1.5h-.63v-3.534Zm1.12,1.5c.356,0,.77-.029.77-.49,0-.42-.391-.469-.714-.469h-.545v.959Z" transform="translate(-179.211 -145.23)" fill="#f05239"/><path d="M266.72,145.32h.545l1.522,3.534h-.72l-.329-.811H266.2l-.321.811h-.7l1.537-3.534Zm.8,2.187-.545-1.438-.554,1.438Z" transform="translate(-187.853 -145.23)" fill="#f05239"/><path d="M279.935,145.889H278.85v-.569h2.8v.569h-1.085v2.966h-.63v-2.966Z" transform="translate(-197.537 -145.23)" fill="#f05239"/><path d="M292.67,145.32h2.342v.569H293.3v.869h1.624v.569H293.3v.959h1.8v.569H292.67Z" transform="translate(-207.327 -145.23)" fill="#f05239"/><path d="M308.56,148.375a3.051,3.051,0,0,1-1.464.35,1.771,1.771,0,0,1-1.866-1.843,1.794,1.794,0,0,1,1.866-1.872,2.019,2.019,0,0,1,1.394.443l-.464.469a1.339,1.339,0,0,0-.924-.344,1.2,1.2,0,0,0-1.213,1.263,1.212,1.212,0,0,0,1.213,1.312,1.713,1.713,0,0,0,.828-.184v-.834h-.723v-.569h1.353Z" transform="translate(-216.225 -145.01)" fill="#f05239"/><path d="M321.92,145.32h.63v3.534h-.63Z" transform="translate(-228.048 -145.23)" fill="#f05239"/><path d="M329.48,145.32h2.342v.569H330.11v.869h1.624v.569H330.11v.959h1.8v.569H329.48Z" transform="translate(-233.404 -145.23)" fill="#f05239"/><path d="M343.844,145.866a.744.744,0,0,0-.618-.28c-.289,0-.58.128-.58.455,0,.709,1.677.3,1.677,1.563a1.148,1.148,0,0,1-1.295,1.129,1.462,1.462,0,0,1-1.158-.478l.472-.461a.831.831,0,0,0,.7.37c.28,0,.618-.16.618-.484,0-.776-1.677-.33-1.677-1.592,0-.729.647-1.067,1.3-1.067a1.452,1.452,0,0,1,1.015.364l-.461.484Z" transform="translate(-242.181 -145.017)" fill="#f05239"/></g></g></g></svg>